<svg width="275" height="275" viewBox="0 0 275 275" fill="none" xmlns="http://www.w3.org/2000/svg">
<rect width="275" height="275" rx="15" fill="white"/>
<path d="M54.024 132.976C54.024 131.168 52.744 130.352 51.72 130.144C52.744 129.808 53.56 128.928 53.56 127.568C53.56 125.568 51.768 124.608 49.4 124.608C48.056 124.608 46.936 124.832 45.8 125.328V126.672C47 126.112 48.04 125.872 49.288 125.888C50.984 125.888 52.2 126.352 52.2 127.728C52.2 128.928 51.096 129.552 49.496 129.552H47.352V130.832H49.64C51.096 130.832 52.648 131.232 52.648 132.848C52.648 134.512 51.016 134.912 49.496 134.912C48.072 134.928 46.84 134.72 45.608 134.144V135.488C46.856 135.968 48.088 136.192 49.592 136.192C51.672 136.192 54.024 135.392 54.024 132.976ZM57.1359 136V132.752H61.5839V136H62.8639V128.32H61.5839V131.568H57.1359V128.32H55.8559V136H57.1359ZM71.4709 134.4V131.392C71.4709 129.248 70.1749 128.128 68.1269 128.128C66.8629 128.128 65.8069 128.432 65.1989 128.64V129.888C65.8709 129.6 66.8149 129.312 67.9989 129.312C69.4069 129.312 70.1909 130.08 70.1909 131.232V131.504C69.5509 131.36 68.7349 131.264 68.0629 131.264C66.4149 131.264 64.5909 131.872 64.5909 133.856C64.5909 135.472 65.9349 136.192 67.2949 136.192C68.5429 136.192 69.5189 135.808 70.2869 135.168C70.5109 135.84 71.0709 136.096 71.6949 136.096C72.0149 136.096 72.3509 136.032 72.6549 135.92V134.88C72.4629 134.944 72.2549 134.992 72.0629 134.992C71.7269 134.992 71.4709 134.864 71.4709 134.4ZM65.9029 133.792C65.9029 132.672 67.1189 132.336 68.2389 132.336C68.8629 132.336 69.6469 132.448 70.1909 132.56V133.968C69.5189 134.688 68.5429 135.088 67.5669 135.088C66.7189 135.088 65.9029 134.688 65.9029 133.792ZM79.8871 136V128.32H78.6071V132.208C78.0151 132.448 77.4711 132.544 76.7031 132.544C75.4231 132.544 74.6391 132.176 74.6391 130.88V128.32H73.3591V130.976C73.3591 132.864 74.5591 133.728 76.3191 133.728C77.2791 133.728 77.9031 133.6 78.6071 133.328V136H79.8871ZM83.3501 136L88.0541 130.384V136H89.3341V128.32H88.2461L83.5421 133.936V128.32H82.2621V136H83.3501ZM92.9156 136V130.208L95.4116 134H96.3716L98.8676 130.208V136H100.084V128.32H98.6916L95.8916 132.576L93.0916 128.32H91.6996V136H92.9156ZM101.922 132.16C101.922 134.784 103.938 136.192 106.018 136.192C108.114 136.192 110.114 134.784 110.114 132.16C110.114 129.536 108.114 128.128 106.018 128.128C103.938 128.128 101.922 129.536 101.922 132.16ZM108.834 132.16C108.834 133.936 107.586 134.976 106.018 134.976C104.45 134.976 103.202 133.936 103.202 132.16C103.202 130.384 104.45 129.344 106.018 129.344C107.586 129.344 108.834 130.384 108.834 132.16ZM111.422 132.192C111.422 134.928 113.518 136.192 115.534 136.192C116.494 136.192 117.31 136.016 118.03 135.664V134.384C117.39 134.768 116.542 135.008 115.71 135.008C114.206 135.008 112.702 134.128 112.702 132.16C112.702 130.144 114.254 129.312 115.742 129.312C116.558 129.312 117.374 129.552 117.95 130V128.752C117.294 128.32 116.446 128.128 115.582 128.128C113.582 128.128 111.422 129.392 111.422 132.192ZM123.103 136V129.504H125.919V128.32H118.991V129.504H121.823V136H123.103ZM131.02 136C132.892 136 133.996 134.928 133.996 133.504C133.996 132.08 132.892 131.008 131.02 131.008H128.652V128.32H127.372V136H131.02ZM128.652 132.16H130.86C131.98 132.16 132.7 132.592 132.7 133.504C132.7 134.416 131.98 134.848 130.86 134.848H128.652V132.16ZM145.846 132.272C145.846 129.36 143.67 128.128 141.59 128.128C140.71 128.128 139.878 128.368 139.174 128.816V130C139.814 129.568 140.678 129.312 141.446 129.312C142.918 129.312 144.342 129.888 144.534 131.568H140.566V132.752H144.534C144.406 134.496 143.062 135.008 141.574 135.008C140.694 135.008 139.798 134.752 139.094 134.32V135.52C139.926 135.968 140.726 136.192 141.83 136.192C143.734 136.192 145.846 135.072 145.846 132.272ZM150.634 136V129.504H153.45V128.32H146.522V129.504H149.354V136H150.634ZM155.991 136L160.695 130.384V136H161.975V128.32H160.887L156.183 133.936V128.32H154.903V136H155.991ZM169.156 128.32L167.076 131.152L164.98 128.32H163.508L166.34 132.048L163.348 136H164.82L167.076 132.96L169.316 136H170.788L167.812 132.048L170.628 128.32H169.156ZM47.464 168V161.504H51.912V168H53.192V160.32H46.184V168H47.464ZM56.711 161.6V160.32H55.559V171.52H56.839V166.848C57.399 167.504 58.343 168.192 59.815 168.192C62.007 168.192 63.655 166.464 63.655 164.16C63.655 161.856 62.007 160.128 59.815 160.128C58.343 160.128 57.399 160.816 56.711 161.6ZM62.375 164.16C62.375 165.92 61.159 167.008 59.671 167.008C58.295 167.008 57.271 166.112 56.839 165.12V163.2C57.271 162.208 58.295 161.312 59.671 161.312C61.159 161.312 62.375 162.4 62.375 164.16ZM64.9685 164.16C64.9685 166.784 66.9845 168.192 69.0645 168.192C71.1605 168.192 73.1605 166.784 73.1605 164.16C73.1605 161.536 71.1605 160.128 69.0645 160.128C66.9845 160.128 64.9685 161.536 64.9685 164.16ZM71.8805 164.16C71.8805 165.936 70.6325 166.976 69.0645 166.976C67.4965 166.976 66.2485 165.936 66.2485 164.16C66.2485 162.384 67.4965 161.344 69.0645 161.344C70.6325 161.344 71.8805 162.384 71.8805 164.16ZM82.5005 164.384C82.5005 162.096 80.7245 160.64 78.7245 160.64C77.5245 160.64 76.4365 161.232 75.8925 162.08C76.2125 161.104 76.6445 160.064 77.7165 159.424C79.4765 158.4 80.7085 158.736 81.8125 157.952V156.608C80.6925 157.696 79.1725 157.12 76.9645 158.48C75.5885 159.344 74.5965 161.12 74.5965 163.696C74.5965 166.608 76.2605 168.192 78.5805 168.192C80.9005 168.192 82.5005 166.784 82.5005 164.384ZM75.8765 164.416C75.8765 163.12 76.9485 161.856 78.5485 161.856C80.2285 161.856 81.2205 162.96 81.2205 164.416C81.2205 165.872 80.2285 166.976 78.5485 166.976C76.9325 166.976 75.8765 165.872 75.8765 164.416ZM86.9353 161.504H90.0553V168H91.3353V160.32H85.6873C85.5433 164.448 85.0953 167.04 83.7353 167.04C83.5753 167.04 83.3993 167.008 83.2233 166.944V167.952C83.5592 168.08 83.8633 168.128 84.1513 168.128C86.1353 168.128 86.6793 165.44 86.9353 161.504ZM93.1716 164.16C93.1716 166.896 95.1556 168.192 97.4276 168.192C98.4356 168.192 99.4436 168 100.148 167.632V166.384C99.4916 166.752 98.5636 167.008 97.6196 167.008C96.0676 167.008 94.6116 166.336 94.4516 164.72H100.564C101.044 162.544 99.9556 160.128 96.9956 160.128C95.1716 160.128 93.1716 161.472 93.1716 164.16ZM99.4276 163.6H94.4516C94.5476 162.096 95.7636 161.312 97.0756 161.312C99.0276 161.312 99.5396 162.784 99.4276 163.6ZM103.65 168V162.208L106.146 166H107.106L109.602 162.208V168H110.818V160.32H109.426L106.626 164.576L103.826 160.32H102.434V168H103.65ZM118.448 168V164.752H122.896V168H124.176V160.32H122.896V163.568H118.448V160.32H117.168V168H118.448ZM132.783 166.4V163.392C132.783 161.248 131.487 160.128 129.439 160.128C128.175 160.128 127.119 160.432 126.511 160.64V161.888C127.183 161.6 128.127 161.312 129.311 161.312C130.719 161.312 131.503 162.08 131.503 163.232V163.504C130.863 163.36 130.047 163.264 129.375 163.264C127.727 163.264 125.903 163.872 125.903 165.856C125.903 167.472 127.247 168.192 128.607 168.192C129.855 168.192 130.831 167.808 131.599 167.168C131.823 167.84 132.383 168.096 133.007 168.096C133.327 168.096 133.663 168.032 133.967 167.92V166.88C133.775 166.944 133.567 166.992 133.375 166.992C133.039 166.992 132.783 166.864 132.783 166.4ZM127.215 165.792C127.215 164.672 128.431 164.336 129.551 164.336C130.175 164.336 130.959 164.448 131.503 164.56V165.968C130.831 166.688 129.855 167.088 128.879 167.088C128.031 167.088 127.215 166.688 127.215 165.792ZM134.812 164.192C134.812 166.928 136.908 168.192 138.924 168.192C139.884 168.192 140.7 168.016 141.42 167.664V166.384C140.78 166.768 139.932 167.008 139.1 167.008C137.596 167.008 136.092 166.128 136.092 164.16C136.092 162.144 137.644 161.312 139.132 161.312C139.948 161.312 140.764 161.552 141.34 162V160.752C140.684 160.32 139.836 160.128 138.972 160.128C136.972 160.128 134.812 161.392 134.812 164.192ZM146.493 168V161.504H149.309V160.32H142.381V161.504H145.213V168H146.493ZM149.984 164.16C149.984 166.784 152 168.192 154.08 168.192C156.176 168.192 158.176 166.784 158.176 164.16C158.176 161.536 156.176 160.128 154.08 160.128C152 160.128 149.984 161.536 149.984 164.16ZM156.896 164.16C156.896 165.936 155.648 166.976 154.08 166.976C152.512 166.976 151.264 165.936 151.264 164.16C151.264 162.384 152.512 161.344 154.08 161.344C155.648 161.344 156.896 162.384 156.896 164.16ZM162.529 161.504H165.649V168H166.929V160.32H161.281C161.137 164.448 160.689 167.04 159.329 167.04C159.169 167.04 158.993 167.008 158.817 166.944V167.952C159.153 168.08 159.457 168.128 159.745 168.128C161.729 168.128 162.273 165.44 162.529 161.504ZM172.941 168C174.813 168 175.917 166.928 175.917 165.504C175.917 164.08 174.813 163.008 172.941 163.008H170.573V160.32H169.293V168H172.941ZM170.573 164.16H172.781C173.901 164.16 174.621 164.592 174.621 165.504C174.621 166.416 173.901 166.848 172.781 166.848H170.573V164.16ZM178.839 168V164.704H180.343L183.159 168H184.663L181.399 164.144L184.311 160.32H182.823L180.391 163.52H178.839V160.32H177.559V168H178.839ZM185.015 164.16C185.015 166.784 187.031 168.192 189.111 168.192C191.207 168.192 193.207 166.784 193.207 164.16C193.207 161.536 191.207 160.128 189.111 160.128C187.031 160.128 185.015 161.536 185.015 164.16ZM191.927 164.16C191.927 165.936 190.679 166.976 189.111 166.976C187.543 166.976 186.295 165.936 186.295 164.16C186.295 162.384 187.543 161.344 189.111 161.344C190.679 161.344 191.927 162.384 191.927 164.16ZM45.656 196.16C45.656 198.784 47.672 200.192 49.752 200.192C51.848 200.192 53.848 198.784 53.848 196.16C53.848 193.536 51.848 192.128 49.752 192.128C47.672 192.128 45.656 193.536 45.656 196.16ZM52.568 196.16C52.568 197.936 51.32 198.976 49.752 198.976C48.184 198.976 46.936 197.936 46.936 196.16C46.936 194.384 48.184 193.344 49.752 193.344C51.32 193.344 52.568 194.384 52.568 196.16ZM61.684 200V192.32H60.404V196.208C59.812 196.448 59.268 196.544 58.5 196.544C57.22 196.544 56.436 196.176 56.436 194.88V192.32H55.156V194.976C55.156 196.864 56.356 197.728 58.116 197.728C59.076 197.728 59.7 197.6 60.404 197.328V200H61.684ZM63.531 196.16C63.531 198.896 65.515 200.192 67.787 200.192C68.795 200.192 69.803 200 70.507 199.632V198.384C69.851 198.752 68.923 199.008 67.979 199.008C66.427 199.008 64.971 198.336 64.811 196.72H70.923C71.403 194.544 70.315 192.128 67.355 192.128C65.531 192.128 63.531 193.472 63.531 196.16ZM69.787 195.6H64.811C64.907 194.096 66.123 193.312 67.435 193.312C69.387 193.312 69.899 194.784 69.787 195.6ZM77.1294 200C78.7934 200 79.6094 199.136 79.6094 197.872C79.6094 196.912 78.9694 196.304 78.3454 196.096C78.9214 195.84 79.3694 195.2 79.3694 194.4C79.3694 193.04 78.3454 192.32 77.0014 192.32H72.7934V200H77.1294ZM74.0734 196.672H77.0014C77.6414 196.672 78.3294 196.88 78.3294 197.792C78.3294 198.64 77.7534 198.88 76.9534 198.88H74.0734V196.672ZM74.0734 193.44H76.8734C77.4174 193.44 78.0734 193.664 78.0734 194.528C78.0734 195.312 77.5454 195.568 76.8734 195.568H74.0734V193.44ZM82.647 200L87.351 194.384V200H88.631V192.32H87.543L82.839 197.936V192.32H81.559V200H82.647ZM91.4765 202.08V200H98.1645V202.08H99.4125V198.848H98.2925V192.32H92.5645C92.5965 195.184 92.2125 197.152 91.2525 198.848H90.2285V202.08H91.4765ZM93.7965 193.472H97.0125V198.848H92.6445C93.3485 197.376 93.7325 195.776 93.7965 193.472ZM102.402 200V196.752H106.85V200H108.13V192.32H106.85V195.568H102.402V192.32H101.122V200H102.402ZM116.737 198.4V195.392C116.737 193.248 115.441 192.128 113.393 192.128C112.129 192.128 111.073 192.432 110.465 192.64V193.888C111.137 193.6 112.081 193.312 113.265 193.312C114.673 193.312 115.457 194.08 115.457 195.232V195.504C114.817 195.36 114.001 195.264 113.329 195.264C111.681 195.264 109.857 195.872 109.857 197.856C109.857 199.472 111.201 200.192 112.561 200.192C113.809 200.192 114.785 199.808 115.553 199.168C115.777 199.84 116.337 200.096 116.961 200.096C117.281 200.096 117.617 200.032 117.921 199.92V198.88C117.729 198.944 117.521 198.992 117.329 198.992C116.993 198.992 116.737 198.864 116.737 198.4ZM111.169 197.792C111.169 196.672 112.385 196.336 113.505 196.336C114.129 196.336 114.913 196.448 115.457 196.56V197.968C114.785 198.688 113.809 199.088 112.833 199.088C111.985 199.088 111.169 198.688 111.169 197.792ZM119.485 202.4L120.685 198.72H119.325L118.445 202.4H119.485ZM132.856 200V192.32H131.576V196.208C130.984 196.448 130.44 196.544 129.672 196.544C128.392 196.544 127.608 196.176 127.608 194.88V192.32H126.328V194.976C126.328 196.864 127.528 197.728 129.288 197.728C130.248 197.728 130.872 197.6 131.576 197.328V200H132.856ZM138.431 200V193.504H141.247V192.32H134.319V193.504H137.151V200H138.431ZM141.922 196.16C141.922 198.784 143.938 200.192 146.018 200.192C148.114 200.192 150.114 198.784 150.114 196.16C150.114 193.536 148.114 192.128 146.018 192.128C143.938 192.128 141.922 193.536 141.922 196.16ZM148.834 196.16C148.834 197.936 147.586 198.976 146.018 198.976C144.45 198.976 143.202 197.936 143.202 196.16C143.202 194.384 144.45 193.344 146.018 193.344C147.586 193.344 148.834 194.384 148.834 196.16ZM160.27 200C161.934 200 162.75 199.136 162.75 197.872C162.75 196.912 162.11 196.304 161.486 196.096C162.062 195.84 162.51 195.2 162.51 194.4C162.51 193.04 161.486 192.32 160.142 192.32H155.934V200H160.27ZM157.214 196.672H160.142C160.782 196.672 161.47 196.88 161.47 197.792C161.47 198.64 160.894 198.88 160.094 198.88H157.214V196.672ZM157.214 193.44H160.014C160.558 193.44 161.214 193.664 161.214 194.528C161.214 195.312 160.686 195.568 160.014 195.568H157.214V193.44ZM164.172 196.16C164.172 198.784 166.188 200.192 168.268 200.192C170.364 200.192 172.364 198.784 172.364 196.16C172.364 193.536 170.364 192.128 168.268 192.128C166.188 192.128 164.172 193.536 164.172 196.16ZM171.084 196.16C171.084 197.936 169.836 198.976 168.268 198.976C166.7 198.976 165.452 197.936 165.452 196.16C165.452 194.384 166.7 193.344 168.268 193.344C169.836 193.344 171.084 194.384 171.084 196.16ZM175.48 200V193.504H179.928V200H181.208V192.32H174.2V200H175.48ZM184.727 193.6V192.32H183.575V203.52H184.855V198.848C185.415 199.504 186.359 200.192 187.831 200.192C190.023 200.192 191.671 198.464 191.671 196.16C191.671 193.856 190.023 192.128 187.831 192.128C186.359 192.128 185.415 192.816 184.727 193.6ZM190.391 196.16C190.391 197.92 189.175 199.008 187.687 199.008C186.311 199.008 185.287 198.112 184.855 197.12V195.2C185.287 194.208 186.311 193.312 187.687 193.312C189.175 193.312 190.391 194.4 190.391 196.16ZM192.984 196.16C192.984 198.784 195 200.192 197.08 200.192C199.176 200.192 201.176 198.784 201.176 196.16C201.176 193.536 199.176 192.128 197.08 192.128C195 192.128 192.984 193.536 192.984 196.16ZM199.896 196.16C199.896 197.936 198.648 198.976 197.08 198.976C195.512 198.976 194.264 197.936 194.264 196.16C194.264 194.384 195.512 193.344 197.08 193.344C198.648 193.344 199.896 194.384 199.896 196.16ZM202.484 196.192C202.484 198.928 204.58 200.192 206.596 200.192C207.556 200.192 208.372 200.016 209.092 199.664V198.384C208.452 198.768 207.604 199.008 206.772 199.008C205.268 199.008 203.764 198.128 203.764 196.16C203.764 194.144 205.316 193.312 206.804 193.312C207.62 193.312 208.436 193.552 209.012 194V192.752C208.356 192.32 207.508 192.128 206.644 192.128C204.644 192.128 202.484 193.392 202.484 196.192ZM45.656 228.16C45.656 230.784 47.672 232.192 49.752 232.192C51.848 232.192 53.848 230.784 53.848 228.16C53.848 225.536 51.848 224.128 49.752 224.128C47.672 224.128 45.656 225.536 45.656 228.16ZM52.568 228.16C52.568 229.936 51.32 230.976 49.752 230.976C48.184 230.976 46.936 229.936 46.936 228.16C46.936 226.384 48.184 225.344 49.752 225.344C51.32 225.344 52.568 226.384 52.568 228.16ZM55.156 228.192C55.156 230.928 57.252 232.192 59.268 232.192C60.228 232.192 61.044 232.016 61.764 231.664V230.384C61.124 230.768 60.276 231.008 59.444 231.008C57.94 231.008 56.436 230.128 56.436 228.16C56.436 226.144 57.988 225.312 59.476 225.312C60.292 225.312 61.108 225.552 61.684 226V224.752C61.028 224.32 60.18 224.128 59.316 224.128C57.316 224.128 55.156 225.392 55.156 228.192ZM66.8371 232V225.504H69.6531V224.32H62.7251V225.504H65.5571V232H66.8371ZM77.2678 230.4V227.392C77.2678 225.248 75.9718 224.128 73.9238 224.128C72.6598 224.128 71.6038 224.432 70.9958 224.64V225.888C71.6678 225.6 72.6118 225.312 73.7958 225.312C75.2038 225.312 75.9878 226.08 75.9878 227.232V227.504C75.3478 227.36 74.5318 227.264 73.8598 227.264C72.2118 227.264 70.3878 227.872 70.3878 229.856C70.3878 231.472 71.7318 232.192 73.0918 232.192C74.3398 232.192 75.3158 231.808 76.0838 231.168C76.3078 231.84 76.8678 232.096 77.4918 232.096C77.8118 232.096 78.1478 232.032 78.4518 231.92V230.88C78.2598 230.944 78.0518 230.992 77.8598 230.992C77.5238 230.992 77.2678 230.864 77.2678 230.4ZM71.6998 229.792C71.6998 228.672 72.9158 228.336 74.0358 228.336C74.6598 228.336 75.4438 228.448 75.9878 228.56V229.968C75.3158 230.688 74.3398 231.088 73.3638 231.088C72.5158 231.088 71.6998 230.688 71.6998 229.792ZM79.2966 228.16C79.2966 230.896 81.2806 232.192 83.5526 232.192C84.5606 232.192 85.5686 232 86.2726 231.632V230.384C85.6166 230.752 84.6886 231.008 83.7446 231.008C82.1926 231.008 80.7366 230.336 80.5766 228.72H86.6886C87.1686 226.544 86.0806 224.128 83.1206 224.128C81.2966 224.128 79.2966 225.472 79.2966 228.16ZM85.5526 227.6H80.5766C80.6726 226.096 81.8886 225.312 83.2006 225.312C85.1526 225.312 85.6646 226.784 85.5526 227.6ZM91.6028 232V225.504H94.4188V224.32H87.4908V225.504H90.3228V232H91.6028ZM95.0935 228.192C95.0935 230.928 97.1895 232.192 99.2055 232.192C100.166 232.192 100.982 232.016 101.702 231.664V230.384C101.062 230.768 100.214 231.008 99.3815 231.008C97.8775 231.008 96.3735 230.128 96.3735 228.16C96.3735 226.144 97.9255 225.312 99.4135 225.312C100.23 225.312 101.046 225.552 101.622 226V224.752C100.966 224.32 100.118 224.128 99.2535 224.128C97.2535 224.128 95.0935 225.392 95.0935 228.192ZM104.343 232L106.439 229.312H108.599V232H109.879V224.32H106.103C104.231 224.32 103.223 225.472 103.223 226.816C103.223 227.888 103.863 228.832 105.063 229.184L102.839 232H104.343ZM104.503 226.816C104.503 225.968 105.143 225.472 106.215 225.472H108.599V228.16H106.215C105.143 228.16 104.503 227.664 104.503 226.816ZM115.703 228.16C115.703 230.784 117.719 232.192 119.799 232.192C121.895 232.192 123.895 230.784 123.895 228.16C123.895 225.536 121.895 224.128 119.799 224.128C117.719 224.128 115.703 225.536 115.703 228.16ZM122.615 228.16C122.615 229.936 121.367 230.976 119.799 230.976C118.231 230.976 116.983 229.936 116.983 228.16C116.983 226.384 118.231 225.344 119.799 225.344C121.367 225.344 122.615 226.384 122.615 228.16ZM128.681 232V225.504H131.497V224.32H124.569V225.504H127.401V232H128.681ZM134.23 232V228.704H135.734L138.55 232H140.054L136.79 228.144L139.702 224.32H138.214L135.782 227.52H134.23V224.32H132.95V232H134.23ZM142.477 225.6V224.32H141.325V235.52H142.605V230.848C143.165 231.504 144.109 232.192 145.581 232.192C147.773 232.192 149.421 230.464 149.421 228.16C149.421 225.856 147.773 224.128 145.581 224.128C144.109 224.128 143.165 224.816 142.477 225.6ZM148.141 228.16C148.141 229.92 146.925 231.008 145.437 231.008C144.061 231.008 143.037 230.112 142.605 229.12V227.2C143.037 226.208 144.061 225.312 145.437 225.312C146.925 225.312 148.141 226.4 148.141 228.16ZM154.91 232C156.782 232 157.886 230.928 157.886 229.504C157.886 228.08 156.782 227.008 154.91 227.008H152.542V224.32H151.262V232H154.91ZM152.542 228.16H154.75C155.87 228.16 156.59 228.592 156.59 229.504C156.59 230.416 155.87 230.848 154.75 230.848H152.542V228.16ZM160.654 232V224.32H159.374V232H160.654ZM166.228 232V225.504H169.044V224.32H162.116V225.504H164.948V232H166.228ZM174.145 232C176.017 232 177.121 230.928 177.121 229.504C177.121 228.08 176.017 227.008 174.145 227.008H171.777V224.32H170.497V232H174.145ZM171.777 228.16H173.985C175.105 228.16 175.825 228.592 175.825 229.504C175.825 230.416 175.105 230.848 173.985 230.848H171.777V228.16ZM179.889 232V224.32H178.609V232H179.889ZM183.478 232V226.208L185.974 230H186.934L189.43 226.208V232H190.646V224.32H189.254L186.454 228.576L183.654 224.32H182.262V232H183.478Z" fill="black"/>
<path d="M85.8281 89.0746H56.0707V75.0625C56.0707 70.0996 60.1535 66.0777 65.1916 66.0777H85.8281V89.0746Z" fill="#CEE8FA"/>
<path d="M85.8281 90.9437H56.0707C55.0238 90.9437 54.1732 90.1058 54.1732 89.0746V75.0625C54.1732 69.0812 59.1197 64.2086 65.1916 64.2086H85.8281C86.875 64.2086 87.7256 65.0465 87.7256 66.0777V89.0746C87.7256 90.1058 86.875 90.9437 85.8281 90.9437ZM57.9681 87.2054H83.9176V67.9597H65.1785C61.2004 67.9597 57.9681 71.1437 57.9681 75.0625V87.2054Z" fill="#2D527C"/>
<path d="M105.444 74.2633H51.5561C47.9443 74.2633 45 71.3629 45 67.7922V61.9785C45 58.4207 47.9443 55.5203 51.5561 55.5203H65.1262C66.173 55.5203 67.0236 56.3582 67.0236 57.3894C67.0236 58.4207 66.173 59.2586 65.1262 59.2586H51.5561C50.0381 59.2586 48.7949 60.4832 48.7949 61.9785V67.7922C48.7949 69.2875 50.0381 70.5121 51.5561 70.5121H105.431C106.949 70.5121 108.192 69.2875 108.192 67.7922V61.9785C108.192 60.4832 106.949 59.2586 105.431 59.2586H78.5C77.4531 59.2586 76.6025 58.4207 76.6025 57.3894C76.6025 56.3582 77.4531 55.5203 78.5 55.5203H105.444C109.056 55.5203 112 58.4207 112 61.9785V67.7922C112 71.3629 109.056 74.2633 105.444 74.2633Z" fill="#F0BF5F"/>
<path d="M78.5 59.1555C77.9111 59.1555 77.3484 58.8977 76.9689 58.3949C76.3408 57.557 76.524 56.384 77.3615 55.7781C79.1543 54.4633 82.8707 51.0086 82.8707 48.7012C82.8707 46.2004 81.0256 44.3957 78.5 44.3957C76.0922 44.3957 74.1293 46.3293 74.1293 48.7012C74.1293 49.7324 73.2787 50.5703 72.2318 50.5703C71.1849 50.5703 70.3344 49.7324 70.3344 48.7012V48.5336C70.3344 48.482 70.3343 48.4305 70.3474 48.3789C70.5045 44.0734 74.1031 40.6445 78.5 40.6445C83.1586 40.6445 86.6787 44.1121 86.6787 48.7012C86.6787 53.5223 80.3582 58.266 79.6254 58.7945C79.2851 59.0395 78.8926 59.1555 78.5 59.1555Z" fill="#F0BF5F"/>
<path d="M92.5412 101.256H67.377C66.3301 101.256 65.4795 100.418 65.4795 99.3871V89.0875C65.4795 88.0562 66.3301 87.2183 67.377 87.2183H100.942C101.989 87.2183 102.84 88.0562 102.84 89.0875C102.84 90.1187 101.989 90.9566 100.942 90.9566H69.2744V97.5179H92.5412C93.5881 97.5179 94.4387 98.3558 94.4387 99.3871C94.4387 100.418 93.5881 101.256 92.5412 101.256Z" fill="#2D527C"/>
<path d="M100.929 89.0746V73.5672C100.929 69.4293 97.5269 66.0777 93.3264 66.0777H67.377V89.0746H100.929Z" fill="#CEE8FA"/>
<path d="M100.929 90.9437H67.377C66.3301 90.9437 65.4795 90.1059 65.4795 89.0746V66.0906C65.4795 65.0594 66.3301 64.2215 67.377 64.2215H93.3395C98.5738 64.2215 102.84 68.4238 102.84 73.5801V89.0875C102.84 90.1059 101.976 90.9437 100.929 90.9437ZM69.2744 87.2055H99.0318V73.5672C99.0318 70.4734 96.4801 67.9597 93.3395 67.9597H69.2744V87.2055Z" fill="#2D527C"/>
<path d="M67.377 105.355C66.3301 105.355 65.4795 104.518 65.4795 103.486V99.3871C65.4795 98.3558 66.3301 97.5179 67.377 97.5179C68.4238 97.5179 69.2744 98.3558 69.2744 99.3871V103.486C69.2744 104.518 68.4238 105.355 67.377 105.355Z" fill="#2D527C"/>
<path d="M100.929 105.355C99.8824 105.355 99.0319 104.518 99.0319 103.486V87.8758C99.0319 86.8445 99.8824 86.0066 100.929 86.0066C101.976 86.0066 102.827 86.8445 102.827 87.8758V103.486C102.84 104.518 101.976 105.355 100.929 105.355Z" fill="#2D527C"/>
<path d="M92.5412 105.355C91.4943 105.355 90.6437 104.518 90.6437 103.486V99.3871C90.6437 98.3558 91.4943 97.5179 92.5412 97.5179C93.5881 97.5179 94.4387 98.3558 94.4387 99.3871V103.486C94.4387 104.518 93.5881 105.355 92.5412 105.355Z" fill="#2D527C"/>
<path d="M84.1531 105.355C83.1063 105.355 82.2557 104.518 82.2557 103.486V99.3871C82.2557 98.3558 83.1063 97.5179 84.1531 97.5179C85.2 97.5179 86.0506 98.3558 86.0506 99.3871V103.486C86.0506 104.518 85.2 105.355 84.1531 105.355Z" fill="#2D527C"/>
<path d="M75.765 105.355C74.7181 105.355 73.8676 104.518 73.8676 103.486V99.3871C73.8676 98.3558 74.7181 97.5179 75.765 97.5179C76.8119 97.5179 77.6625 98.3558 77.6625 99.3871V103.486C77.6625 104.518 76.8119 105.355 75.765 105.355Z" fill="#2D527C"/>
</svg>
